<svg width="98" height="24" viewBox="0 0 98 24" fill="none" xmlns="http://www.w3.org/2000/svg">
<g clip-path="url(#clip0_537_425)">
<path d="M31.5312 2.68561C31.5312 2.68561 31.5312 2.68569 31.0312 1.02777C30.7648 0.144807 30.873 -0.267213 30.1035 0.185604L14.1035 9.18563L16.1035 5.18562C16.6807 3.50373 16.6342 3.80405 15.0313 3.02778C14.9323 2.97935 15.0959 3.05889 15.0313 3.02778C14.1014 2.57496 13.4561 2.18294 13.1035 3.18561L12.1035 8.18563L10.1035 4.18561C9.26999 2.342 8.99508 1.50639 7.10354 2.18561C6.30205 2.4767 5.75088 3.40936 6.10354 4.18561L8.10354 8.18563L4.10354 6.18562C2.43643 5.5064 1.93709 5.56841 1.10354 7.18562C1.07148 7.28266 1.1356 7.08859 1.10354 7.18562C0.750882 7.92953 1.33411 8.86219 2.10354 9.18563L6.10354 10.1856L2.03127 12.0278C0.0312519 13.0279 -0.184997 12.3744 0.103541 14.1856C0.103541 14.1209 0.103541 14.2503 0.103541 14.1856C0.263841 15.1237 0.173801 15.4445 1.10354 15.1856L6.10354 14.1856L3.10354 18.1857C2.17381 19.6088 2.8532 20.0212 4.10354 21.1857C3.9753 21.0886 4.19971 21.2827 4.10354 21.1857C4.7768 21.7678 4.62264 21.8973 5.10354 21.1857L8.10354 16.1856L9.10354 22.1857C9.26385 23.8998 9.40438 24.0563 11.1035 24.1857C10.9111 24.1857 11.2638 24.1857 11.1035 24.1857C11.873 24.2181 12.1997 23.9619 12.1035 23.1857V17.1856L16.1035 22.1857C17.0654 23.35 17.4649 24.0942 18.0313 23.5278C18.5313 23.0278 18.5313 23.0279 19.0313 22.5278C19.6997 21.8593 19.6485 21.8326 19.1035 21.1857L15.1035 16.1856L23.1035 19.1857C24.3218 19.5738 24.3706 19.0414 25.1035 18.1857C25.5312 17.6863 25.3155 17.9041 25.5312 17.6863C26.2654 16.9454 26.0012 16.4768 25.1035 16.1856L18.1035 14.1856L28.1035 12.1856C29.3538 11.9915 30.1035 11.9605 30.1035 11.1856C30.1035 10.6862 30.1035 10.7363 30.1035 10.1111C30.1035 9.68628 30.0332 9.05625 29.1035 9.18563L18.1035 11.1856L30.1035 4.18561C31.3539 3.44171 31.5312 3.18573 31.5312 2.68561ZM12.1035 14.1856C11.3982 14.5738 10.4883 13.8649 10.1035 13.1856C9.71882 12.474 9.43025 11.5738 10.1035 11.1856C10.7768 10.7975 11.7188 11.5064 12.1035 12.1856C12.5204 12.8648 12.8088 13.7974 12.1035 14.1856Z" fill="#013B4F"/>
<path d="M38.54 23V2.98H47.332C49.6093 2.98 51.3547 3.60533 52.568 4.856C53.7627 6.088 54.36 7.60933 54.36 9.42C54.36 11.324 53.7627 12.8547 52.568 14.012C51.3733 15.1693 49.74 15.748 47.668 15.748H42.74V23H38.54ZM42.74 6.508V12.444H46.94C47.9853 12.444 48.788 12.1827 49.348 11.66C49.908 11.1187 50.188 10.3813 50.188 9.448C50.188 8.51467 49.908 7.796 49.348 7.292C48.788 6.76933 48.004 6.508 46.996 6.508H42.74ZM57.3681 23V2.98H66.3281C68.4748 2.98 70.0895 3.46533 71.1721 4.436C72.2361 5.388 72.7681 6.63867 72.7681 8.188C72.7681 10.148 71.7228 11.4827 69.6321 12.192V12.276C70.7521 12.612 71.6481 13.2187 72.3201 14.096C73.0108 14.9733 73.3561 16.0187 73.3561 17.232C73.3561 19.0053 72.7681 20.396 71.5921 21.404C70.3788 22.468 68.6988 23 66.5521 23H57.3681ZM61.4281 14.04V19.64H66.1041C67.0748 19.64 67.8401 19.3973 68.4001 18.912C68.9601 18.408 69.2401 17.7453 69.2401 16.924C69.2401 16.0093 68.9321 15.3 68.3161 14.796C67.7188 14.292 66.9441 14.04 65.9921 14.04H61.4281ZM61.4281 11.044H65.8241C66.7201 11.044 67.4388 10.8387 67.9801 10.428C68.5215 9.99867 68.7921 9.40133 68.7921 8.636C68.7921 7.88933 68.5308 7.31067 68.0081 6.9C67.5041 6.48933 66.8041 6.284 65.9081 6.284H61.4281V11.044ZM84.4991 23.448C81.7925 23.448 79.6925 22.8787 78.1991 21.74C76.7058 20.5827 75.9218 18.94 75.8471 16.812H79.8231C79.9538 18.0067 80.3738 18.8653 81.0831 19.388C81.8111 19.9107 82.8938 20.172 84.3311 20.172C85.4698 20.172 86.4031 19.9667 87.1311 19.556C87.8591 19.1267 88.2231 18.4733 88.2231 17.596C88.2231 17.2787 88.1765 16.9987 88.0831 16.756C88.0085 16.4947 87.8405 16.2707 87.5791 16.084C87.3178 15.8787 87.0938 15.72 86.9071 15.608C86.7205 15.4773 86.3751 15.3467 85.8711 15.216C85.3671 15.0667 84.9845 14.964 84.7231 14.908C84.4618 14.8333 83.9765 14.712 83.2671 14.544C82.4085 14.3387 81.6991 14.1613 81.1391 14.012C80.5978 13.8627 79.9911 13.6293 79.3191 13.312C78.6658 12.9947 78.1431 12.6493 77.7511 12.276C77.3778 11.884 77.0605 11.38 76.7991 10.764C76.5378 10.1293 76.4071 9.41067 76.4071 8.608C76.4071 6.68533 77.1071 5.21067 78.5071 4.184C79.9258 3.13867 81.7831 2.616 84.0791 2.616C86.3565 2.616 88.1765 3.15733 89.5391 4.24C90.9018 5.32267 91.6578 6.86267 91.8071 8.86H87.9151C87.8031 7.88933 87.3925 7.14267 86.6831 6.62C85.9925 6.09733 85.1151 5.836 84.0511 5.836C82.9498 5.836 82.0725 6.05067 81.4191 6.48C80.7658 6.90933 80.4391 7.47867 80.4391 8.188C80.4391 8.95333 80.7565 9.51333 81.3911 9.868C82.0445 10.2227 83.1831 10.5773 84.8071 10.932C85.7778 11.1373 86.5711 11.3333 87.1871 11.52C87.8031 11.688 88.4658 11.94 89.1751 12.276C89.9031 12.5933 90.4631 12.948 90.8551 13.34C91.2658 13.732 91.6018 14.2547 91.8631 14.908C92.1431 15.5427 92.2831 16.28 92.2831 17.12C92.2831 19.0987 91.5645 20.648 90.1271 21.768C88.6898 22.888 86.8138 23.448 84.4991 23.448Z" fill="#013B4F"/>
</g>
<defs>
<clipPath id="clip0_537_425">
<rect width="98" height="24" fill="white"/>
</clipPath>
</defs>
</svg>
